<svg width="65" height="64" viewBox="0 0 65 64" fill="none" xmlns="http://www.w3.org/2000/svg">
<path d="M24.9 57.5466L19.1667 54.6709V30.2222L23.54 27.3066C24.1534 26.88 24.6867 26.3733 25.0867 25.7333C26.6867 23.1733 28.3934 19.92 29.8334 16C30.82 13.3066 31.4867 10.7733 31.94 8.53331C32.3134 6.66665 33.9934 5.33331 35.9134 5.33331C40.9534 5.33331 44.6334 10.0533 43.4067 14.9333L40.5 26.6666H52.8734C56.18 26.6666 58.6867 29.6266 58.1267 32.88L54.58 54.2133C54.1534 56.7733 51.9134 58.6666 49.3267 58.6666H29.6734C28.02 58.6666 26.3934 58.2933 24.9 57.5466Z" fill="#20497D"/>
<path d="M13.8334 24H8.50004C7.03337 24 5.83337 25.2 5.83337 26.6666V56C5.83337 57.4666 7.03337 58.6666 8.50004 58.6666H13.8334V24Z" fill="#20497D"/>
</svg>
