<svg width="64" height="64" viewBox="0 0 64 64" fill="none" xmlns="http://www.w3.org/2000/svg">
<path d="M13.3334 5.33331H8.00004C6.53337 5.33331 5.33337 6.53331 5.33337 7.99998V37.3333C5.33337 38.8 6.53337 40 8.00004 40H13.3334V5.33331Z" fill="#C0504D"/>
<path d="M23.04 36.6933L18.6667 33.7778V9.32908L24.4 6.45331C25.8934 5.70665 27.52 5.33331 29.1734 5.33331H48.8267C51.4134 5.33331 53.6534 7.22665 54.08 9.78665L57.6267 31.12C58.1867 34.3733 55.68 37.3333 52.3734 37.3333H40L42.9067 49.0666C44.1334 53.9466 40.4534 58.6666 35.4134 58.6666C33.4934 58.6666 31.8134 57.3333 31.44 55.4666C30.9867 53.2266 30.32 50.6933 29.3334 48C27.8934 44.08 26.1867 40.8266 24.5867 38.2666C24.1867 37.6266 23.6534 37.12 23.04 36.6933Z" fill="#C0504D"/>
</svg>
